name D:\PhD\Datasets\SharingData_IBEC_VALDUCE\RM2_Comp_0001.mot
datacolumns 46
datarows 9
range 0.01000000 0.09000000
endheader
                time	         pelvis_tilt	     pelvis_rotation	           pelvis_tx	           pelvis_ty	           pelvis_tz	       hip_flexion_r	     hip_adduction_r	      hip_rotation_r	        knee_angle_r	       ankle_angle_r	    subtalar_angle_r	         mtp_angle_r	       hip_flexion_l	     hip_adduction_l	      hip_rotation_l	        knee_angle_l	       ankle_angle_l	    subtalar_angle_l	         mtp_angle_l	    lumbar_extension	      lumbar_bending	     lumbar_rotation	          arm_flex_r	           arm_add_r	           arm_rot_r	        elbow_flex_r	           pro_sup_r	        wrist_flex_r	         wrist_dev_r	          arm_flex_l	           arm_add_l	           arm_rot_l	        elbow_flex_l	           pro_sup_l	        wrist_flex_l	         wrist_dev_l	          end_eff_tx	          end_eff_ty	          end_eff_tz	             goal_tx	             goal_ty	             goal_tz	            elbow_tx	            elbow_ty	            elbow_tz	
          0.01000000	          0.00000000	          0.00000000	        350.78307893	        501.20510233	        379.80738085	          0.00000000	          0.00000000	          0.00000000	          0.00000000	          0.00000000	          0.00000000	          0.00000000	          0.00000000	          0.00000000	          0.00000000	          0.00000000	          0.00000000	          0.00000000	          0.00000000	         -2.79157639	          5.74081707	         -5.00694036	        -10.00189495	        -39.51878738	         16.34683800	         87.57019806	        101.56718445	          0.00000000	          0.00000000	          0.00000000	          0.00000000	          0.00000000	          0.00000000	          0.00000000	          0.00000000	          0.00000000	        512.96377473	        183.40393359	        527.34230290	       1110.40210305	        673.33482911	        509.63956114	        159.49304123	        316.26079829	        711.38500739	
          0.02000000	          0.00000000	          0.00000000	        350.69995368	        501.20935839	        379.78034083	          0.00000000	          0.00000000	          0.00000000	          0.00000000	          0.00000000	          0.00000000	          0.00000000	          0.00000000	          0.00000000	          0.00000000	          0.00000000	          0.00000000	          0.00000000	          0.00000000	         -2.82698417	          5.74521637	         -4.99628973	         -9.95557976	        -39.46287537	         16.24163818	         87.52898407	        101.60673523	          0.00000000	          0.00000000	          0.00000000	          0.00000000	          0.00000000	          0.00000000	          0.00000000	          0.00000000	          0.00000000	        512.94740629	        183.44759994	        527.29072275	       1110.39628223	        673.31770122	        509.62026809	        159.50523547	        316.27060760	        711.40556699	
          0.03000000	          0.00000000	          0.00000000	        350.59932095	        501.19556822	        379.75425705	          0.00000000	          0.00000000	          0.00000000	          0.00000000	          0.00000000	          0.00000000	          0.00000000	          0.00000000	          0.00000000	          0.00000000	          0.00000000	          0.00000000	          0.00000000	          0.00000000	         -2.78264546	          5.73390341	         -4.98572445	        -10.00802803	        -39.44499588	         16.20993042	         87.52016449	        101.59519958	          0.00000000	          0.00000000	          0.00000000	          0.00000000	          0.00000000	          0.00000000	          0.00000000	          0.00000000	          0.00000000	        512.95594471	        183.45988170	        527.29961345	       1110.39169310	        673.33166227	        509.62990527	        159.51965736	        316.27446171	        711.43148698	
          0.04000000	          0.00000000	          0.00000000	        350.84514757	        501.51723959	        379.75971280	          0.00000000	          0.00000000	          0.00000000	          0.00000000	          0.00000000	          0.00000000	          0.00000000	          0.00000000	          0.00000000	          0.00000000	          0.00000000	          0.00000000	          0.00000000	          0.00000000	         -2.63663960	          5.28957987	         -4.28615093	        -10.58809757	        -39.22788239	         15.46539783	         87.65686798	        101.81704712	          0.00000000	          0.00000000	          0.00000000	          0.00000000	          0.00000000	          0.00000000	          0.00000000	          0.00000000	          0.00000000	        513.04119509	        183.49250433	        527.35111337	       1110.41124092	        673.32306376	        509.64067995	        159.52225022	        316.28050709	        711.43881914	
          0.05000000	          0.00000000	          0.00000000	        350.76728508	        501.53875997	        379.73374311	          0.00000000	          0.00000000	          0.00000000	          0.00000000	          0.00000000	          0.00000000	          0.00000000	          0.00000000	          0.00000000	          0.00000000	          0.00000000	          0.00000000	          0.00000000	          0.00000000	         -2.63402843	          5.29445076	         -4.28635693	        -10.57792664	        -39.26863861	         15.50983334	         87.66709900	        101.84119415	          0.00000000	          0.00000000	          0.00000000	          0.00000000	          0.00000000	          0.00000000	          0.00000000	          0.00000000	          0.00000000	        513.00916848	        183.49361115	        527.31018811	       1110.40234714	        673.29822269	        509.64037896	        159.55185381	        316.28756606	        711.47632183	
          0.06000000	          0.00000000	          0.00000000	        350.39044185	        501.31647348	        379.73453906	          0.00000000	          0.00000000	          0.00000000	          0.00000000	          0.00000000	          0.00000000	          0.00000000	          0.00000000	          0.00000000	          0.00000000	          0.00000000	          0.00000000	          0.00000000	          0.00000000	         -2.75940633	          5.55824089	         -4.57664728	        -10.27664757	        -39.54719925	         15.73481464	         87.69622803	        101.58662415	          0.00000000	          0.00000000	          0.00000000	          0.00000000	          0.00000000	          0.00000000	          0.00000000	          0.00000000	          0.00000000	        513.33906844	        183.67090512	        527.69442288	       1110.45342997	        673.25213158	        509.60232953	        159.61076756	        316.37373372	        711.58746071	
          0.07000000	          0.00000000	          0.00000000	        350.25277221	        501.30766905	        379.70946920	          0.00000000	          0.00000000	          0.00000000	          0.00000000	          0.00000000	          0.00000000	          0.00000000	          0.00000000	          0.00000000	          0.00000000	          0.00000000	          0.00000000	          0.00000000	          0.00000000	         -2.76552367	          5.59015608	         -4.59831238	        -10.22474861	        -39.59389496	         15.80824280	         87.63373566	        101.50775146	          0.00000000	          0.00000000	          0.00000000	          0.00000000	          0.00000000	          0.00000000	          0.00000000	          0.00000000	          0.00000000	        513.36469631	        183.71028449	        527.71205920	       1110.44735066	        673.23751632	        509.66755497	        159.52510288	        316.35246839	        711.77965155	
          0.08000000	          0.00000000	          0.00000000	        350.12682176	        501.28546328	        379.65019051	          0.00000000	          0.00000000	          0.00000000	          0.00000000	          0.00000000	          0.00000000	          0.00000000	          0.00000000	          0.00000000	          0.00000000	          0.00000000	          0.00000000	          0.00000000	          0.00000000	         -2.79861021	          5.61127806	         -4.59415388	        -10.19125557	        -39.63020325	         15.80948353	         87.64476013	        101.47393036	          0.00000000	          0.00000000	          0.00000000	          0.00000000	          0.00000000	          0.00000000	          0.00000000	          0.00000000	          0.00000000	        513.39246948	        183.78576382	        527.71624210	       1110.45159611	        673.21698003	        509.65776958	        159.52976960	        316.38977532	        711.84045826	
          0.09000000	          0.00000000	          0.00000000	        349.99998795	        501.23002530	        379.60698305	          0.00000000	          0.00000000	          0.00000000	          0.00000000	          0.00000000	          0.00000000	          0.00000000	          0.00000000	          0.00000000	          0.00000000	          0.00000000	          0.00000000	          0.00000000	          0.00000000	         -2.74366808	          5.59207678	         -4.60412884	        -10.17958927	        -39.67111206	         15.85023594	         87.62439728	        101.49614716	          0.00000000	          0.00000000	          0.00000000	          0.00000000	          0.00000000	          0.00000000	          0.00000000	          0.00000000	          0.00000000	        513.38889015	        183.76834281	        527.71981994	       1110.44882958	        673.25372801	        509.65108168	        159.54414944	        316.39270389	        711.90182752	
